<?xml version="1.0" encoding="UTF-8"?>
<svg version="1.1" xmlns="http://www.w3.org/2000/svg" width="1000" height="200">
<path d="M0 0 C1.51318817 -0.00744736 1.51318817 -0.00744736 3.0569458 -0.01504517 C6.39059129 -0.02963595 9.72418917 -0.0364642 13.05786133 -0.04199219 C15.38088481 -0.04774682 17.70390829 -0.05350452 20.02693176 -0.05926514 C24.89832785 -0.0697668 29.76970747 -0.07561472 34.64111328 -0.07910156 C40.86725141 -0.08458 47.09317017 -0.10859787 53.31923962 -0.13707352 C58.11923344 -0.155747 62.91917497 -0.16090804 67.71920204 -0.16243744 C70.01359568 -0.16545459 72.3079886 -0.17345127 74.60234642 -0.18662262 C77.82100216 -0.20377902 81.03912892 -0.20177917 84.2578125 -0.1953125 C85.66484184 -0.20913467 85.66484184 -0.20913467 87.10029602 -0.22323608 C99.40967354 -0.14621107 109.32441585 4.22164359 118.47192383 12.41894531 C125.82273875 20.00137795 131.04001321 29.88536019 131.0995636 40.63026428 C131.11029655 41.96513885 131.11029655 41.96513885 131.12124634 43.32698059 C131.12393524 44.29584702 131.12662415 45.26471344 131.12939453 46.26293945 C131.13596573 47.28948639 131.14253693 48.31603333 131.14930725 49.37368774 C131.16902517 52.77288895 131.18070125 56.17204595 131.19067383 59.57128906 C131.19474936 60.73437529 131.19882488 61.89746151 131.20302391 63.09579277 C131.22388096 69.25518491 131.23818274 75.4145548 131.24755859 81.57397461 C131.25860565 87.92005307 131.29298739 94.26577923 131.33273029 100.61173344 C131.35894425 105.50441618 131.36725484 110.39701571 131.37084007 115.2897625 C131.37569578 117.62799896 131.38728057 119.96623195 131.40587807 122.30439949 C131.43036432 125.58773363 131.42928652 128.87016595 131.42236328 132.15356445 C131.44157837 133.58560966 131.44157837 133.58560966 131.46118164 135.04658508 C131.36634755 147.47005733 126.04215934 157.79908518 117.76489258 166.84863281 C108.54781356 175.63653521 97.82895125 178.46331423 85.51000977 178.45166016 C84.48302475 178.45837738 83.45603973 178.4650946 82.39793396 178.47201538 C79.01499544 178.49095654 75.63225577 178.49491778 72.24926758 178.49707031 C69.8866569 178.50350139 67.52404701 178.51022998 65.16143799 178.51724243 C60.21201736 178.52920584 55.26266648 178.53292426 50.31323242 178.53173828 C43.99075446 178.53153526 37.66872681 178.55882514 31.34635544 178.5932827 C26.4665321 178.61559051 21.58681642 178.61957461 16.70694733 178.61851883 C14.37709249 178.6208694 12.04723444 178.62966205 9.71743011 178.64518356 C6.4487565 178.66491964 3.18104474 178.65897486 -0.08764648 178.64697266 C-1.03763016 178.65821167 -1.98761383 178.66945068 -2.96638489 178.68103027 C-15.6501821 178.56349822 -26.96826991 172.84571652 -36.04760742 164.16113281 C-44.26708755 153.82513655 -47.19315174 143.25810548 -47.20874023 130.29711914 C-47.21370514 129.30783417 -47.21867004 128.31854919 -47.2237854 127.29928589 C-47.23837441 124.03057149 -47.24520416 120.76190565 -47.25073242 117.49316406 C-47.25648723 115.21498107 -47.26224492 112.93679809 -47.26800537 110.65861511 C-47.27850656 105.88137588 -47.28435478 101.10415344 -47.2878418 96.3269043 C-47.29331993 90.22183257 -47.31733734 84.11698459 -47.34581375 78.01198292 C-47.36448956 73.30463525 -47.3696484 68.59734091 -47.37117767 63.88995934 C-47.37419434 61.64022284 -47.38218934 59.39048707 -47.39536285 57.14078712 C-47.41252408 53.98439421 -47.41051827 50.82854049 -47.40405273 47.67211914 C-47.41326752 46.75280106 -47.4224823 45.83348297 -47.43197632 44.88630676 C-47.35235776 32.40303857 -42.63206081 21.20961071 -34.04760742 12.16113281 C-33.38760742 12.16113281 -32.72760742 12.16113281 -32.04760742 12.16113281 C-32.04760742 11.50113281 -32.04760742 10.84113281 -32.04760742 10.16113281 C-21.82201336 2.77483851 -12.42693537 0.01465137 0 0 Z " fill="#FEFEFE" transform="translate(59.047607421875,10.8388671875)"/>
<path d="M0 0 C4.31013212 3.73544784 6.79162416 6.51957715 7.27415466 12.26342773 C7.28479446 13.55708252 7.29543427 14.8507373 7.30639648 16.18359375 C7.31472 16.89951691 7.32304352 17.61544006 7.33161926 18.35305786 C7.35567367 20.71459418 7.36448428 23.07585426 7.37109375 25.4375 C7.38006136 27.08129966 7.38918323 28.72509849 7.39845276 30.36889648 C7.41493133 33.81203189 7.42264118 37.25507017 7.42553711 40.69824219 C7.43092944 45.11039053 7.46864836 49.52162703 7.51428127 53.93351746 C7.54401544 57.32730451 7.55125981 60.7208706 7.55226326 64.11477661 C7.55647044 65.74150788 7.5689248 67.36823952 7.58978081 68.99484253 C7.61663092 71.26938208 7.61189196 73.54178932 7.59936523 75.81640625 C7.60443588 77.11006104 7.60950653 78.40371582 7.61473083 79.73657227 C7 83 7 83 4.5907135 85.3737793 C-1.91947777 89.46030134 -7.89779433 90.78063806 -15.5625 89.375 C-28.016352 86.0828513 -34.2633272 76.54763582 -40.4375 66 C-41.97269663 63.34104604 -43.49009489 60.67347383 -45 58 C-44.97905273 58.73637695 -44.95810547 59.47275391 -44.93652344 60.23144531 C-44.85332856 63.57082442 -44.80132843 66.90998549 -44.75 70.25 C-44.71648438 71.40886719 -44.68296875 72.56773438 -44.6484375 73.76171875 C-44.63554688 74.87675781 -44.62265625 75.99179688 -44.609375 77.140625 C-44.58842773 78.16704102 -44.56748047 79.19345703 -44.54589844 80.25097656 C-45.11701047 83.70835372 -46.31958153 84.82491401 -49 87 C-53.76795528 89.63466395 -58.58050907 90.66555152 -64 90 C-70.32544586 88.06631448 -74.32778476 85.50832286 -78 80 C-79.26424078 76.39050917 -79.15406757 72.79612135 -79.19287109 69 C-79.20104858 68.30358398 -79.20922607 67.60716797 -79.21765137 66.88964844 C-79.24239531 64.59310755 -79.25898801 62.29662776 -79.2734375 60 C-79.27876118 59.21431641 -79.28408485 58.42863281 -79.28956985 57.61914062 C-79.31624649 53.46485369 -79.33564361 49.31059632 -79.35009766 45.15625 C-79.36346531 41.71848104 -79.39137644 38.28130168 -79.43212891 34.84375 C-79.48137341 30.68936735 -79.50620727 26.53552144 -79.51332474 22.38085938 C-79.52004471 20.79876844 -79.53528635 19.21668985 -79.55921555 17.63476562 C-79.59078524 15.42253795 -79.59091851 13.21239313 -79.58349609 11 C-79.59158295 9.741875 -79.5996698 8.48375 -79.60800171 7.1875 C-79 4 -79 4 -76.61270142 1.63916016 C-69.64366105 -2.73308584 -63.07796637 -2.72271726 -55 -2 C-47.2273853 0.04413646 -43.03586814 5.64585685 -39.02734375 12.25 C-36.41185773 16.74149277 -33.91923931 21.29813376 -31.44921875 25.87109375 C-31.01222656 26.67675781 -30.57523438 27.48242188 -30.125 28.3125 C-29.75632812 29.00988281 -29.38765625 29.70726562 -29.0078125 30.42578125 C-28.07770392 32.17454694 -28.07770392 32.17454694 -26 33 C-26 23.1 -26 13.2 -26 3 C-25.34 3 -24.68 3 -24 3 C-24 2.34 -24 1.68 -24 1 C-16.31993659 -4.33337737 -8.16555296 -4.46794407 0 0 Z " fill="#FDFCFC" transform="translate(791,54)"/>
<path d="M0 0 C1.14299561 0.00241699 1.14299561 0.00241699 2.30908203 0.00488281 C9.1040422 0.15351801 13.77159759 1.30052009 18.6875 6.375 C20.4316512 9.65810815 20.87272182 12.74814994 20.92358398 16.43408203 C20.93707382 17.22235382 20.95056366 18.01062561 20.96446228 18.82278442 C20.97490067 19.66759369 20.98533905 20.51240295 20.99609375 21.3828125 C21.0290539 23.19271277 21.06226515 25.00260849 21.09570312 26.8125 C21.14290294 29.64937988 21.18730849 32.48624426 21.22680664 35.32324219 C21.26692549 38.07246454 21.31838862 40.82130643 21.37109375 43.5703125 C21.3795079 44.40297638 21.38792206 45.23564026 21.39659119 46.09353638 C21.51576413 51.87376691 21.81761184 57.88320047 23.75 63.375 C26.59826598 65.74192966 26.59826598 65.74192966 29.9375 65 C31.3296875 64.690625 31.3296875 64.690625 32.75 64.375 C35.79823899 56.2463627 35.86926611 48.40824871 35.70703125 39.85546875 C35.68466883 37.84441061 35.66321067 35.83334225 35.64257812 33.82226562 C35.605322 30.67720757 35.56194261 27.53267398 35.50317383 24.38793945 C35.44888802 21.33537005 35.41966389 18.28339847 35.39453125 15.23046875 C35.37074905 14.28672897 35.34696686 13.3429892 35.32246399 12.37065125 C35.2963342 5.8942291 35.2963342 5.8942291 37.53393555 3.33325195 C45.68460041 -0.19119 53.32395051 -0.65004361 61.671875 2.40234375 C66.12978857 4.48884841 68.24763147 7.42408814 70.5 11.6875 C76.08851994 28.17363382 75.40711681 56.08987863 68.1328125 72.06640625 C63.4011007 79.965959 57.19342765 85.75216327 48.75 89.375 C47.72326172 89.83326172 47.72326172 89.83326172 46.67578125 90.30078125 C33.80538475 95.32047379 17.08972201 94.30425806 4.1875 89.625 C-4.88564965 85.46901031 -9.70431312 79.12107022 -13.1875 69.890625 C-16.12569715 60.79351458 -16.44528955 51.68841137 -16.4375 42.1875 C-16.43669434 41.15391357 -16.43588867 40.12032715 -16.43505859 39.05541992 C-16.37830675 31.73610138 -16.01745803 24.47832275 -15.375 17.1875 C-15.29660889 16.27395752 -15.21821777 15.36041504 -15.13745117 14.41918945 C-14.29530111 5.86284792 -14.29530111 5.86284792 -12.25 2.375 C-8.74999971 -0.42839829 -4.28984151 -0.00927533 0 0 Z " fill="#FCFCFC" transform="translate(630.25,51.625)"/>
<path d="M0 0 C1.51747833 -0.00472824 1.51747833 -0.00472824 3.06561279 -0.009552 C4.1490094 -0.00752777 5.23240601 -0.00550354 6.34863281 -0.00341797 C7.47440735 -0.00437469 8.60018188 -0.00533142 9.7600708 -0.00631714 C12.1405035 -0.00699702 14.52093806 -0.00515614 16.90136719 -0.00097656 C20.52445708 0.00435436 24.14742187 -0.00091778 27.77050781 -0.00732422 C30.08821642 -0.00666301 32.40592494 -0.00538097 34.72363281 -0.00341797 C35.7989325 -0.0054422 36.87423218 -0.00746643 37.9821167 -0.009552 C44.004337 0.00898137 49.82958645 0.34530371 55.80175781 1.12939453 C58.81745694 6.97231159 58.52324191 12.72444754 56.67675781 18.87939453 C53.92808797 23.64375559 50.92933211 26.34211032 45.75097656 28.25830078 C40.99858374 29.52765524 36.24794166 29.34580978 31.36425781 29.25439453 C30.44193359 29.24537109 29.51960938 29.23634766 28.56933594 29.22705078 C26.31319973 29.20367113 24.05762097 29.17090369 21.80175781 29.12939453 C21.80175781 30.11939453 21.80175781 31.10939453 21.80175781 32.12939453 C22.91292969 32.10619141 24.02410156 32.08298828 25.16894531 32.05908203 C43.21752165 31.78921574 43.21752165 31.78921574 48.80175781 34.12939453 C51.60291554 37.57697327 51.15447899 42.43759131 51.05175781 46.75830078 C50.60295524 51.01491266 48.94250918 53.13123709 45.80175781 55.87939453 C38.42048716 58.95492397 29.68175707 58.283234 21.80175781 58.12939453 C21.80175781 59.44939453 21.80175781 60.76939453 21.80175781 62.12939453 C31.70175781 62.12939453 41.60175781 62.12939453 51.80175781 62.12939453 C56.57953559 71.68495009 56.57953559 71.68495009 55.80175781 77.12939453 C54.35249618 81.45275366 52.56975414 84.43454071 49.17675781 87.50439453 C40.37258109 91.74344258 30.82534882 91.43829524 21.23925781 91.37939453 C19.34530273 91.39099609 19.34530273 91.39099609 17.41308594 91.40283203 C1.48202252 91.36955566 1.48202252 91.36955566 -5.07324219 87.37939453 C-10.53377743 81.59765133 -11.32137862 75.01402095 -11.32763672 67.34619141 C-11.33078888 66.23062866 -11.33394104 65.11506592 -11.33718872 63.96569824 C-11.33516449 62.77190552 -11.33314026 61.57811279 -11.33105469 60.34814453 C-11.33201141 59.10246704 -11.33296814 57.85678955 -11.33395386 56.57336426 C-11.33463368 53.93738319 -11.33329908 51.30149509 -11.32861328 48.66552734 C-11.32185103 44.6716912 -11.32854632 40.67791911 -11.33496094 36.68408203 C-11.33429942 34.11376929 -11.33301673 31.54345661 -11.33105469 28.97314453 C-11.33307892 27.79554565 -11.33510315 26.61794678 -11.33718872 25.40466309 C-11.31472887 17.27634978 -10.87143047 9.22914992 -10.19824219 1.12939453 C-6.73827382 0.346904 -3.54460398 0.00318462 0 0 Z " fill="#FCFCFC" transform="translate(265.1982421875,51.87060546875)"/>
<path d="M0 0 C1.01487991 -0.00315216 2.02975983 -0.00630432 3.07539368 -0.009552 C4.16192734 -0.00752777 5.248461 -0.00550354 6.36791992 -0.00341797 C7.49606613 -0.00437469 8.62421234 -0.00533142 9.7865448 -0.00631714 C12.17117366 -0.00699696 14.55580439 -0.00515645 16.94042969 -0.00097656 C20.57450567 0.00435946 24.20845723 -0.00092057 27.8425293 -0.00732422 C30.16349311 -0.00666311 32.48445685 -0.00538127 34.80541992 -0.00341797 C35.88588089 -0.0054422 36.96634186 -0.00746643 38.07954407 -0.009552 C49.29589102 0.02496374 49.29589102 0.02496374 54.78588867 1.12939453 C58.04892756 6.02395287 57.33789008 11.40927995 56.78588867 17.12939453 C55.51141864 21.33659389 53.27357064 23.73509847 49.84838867 26.50439453 C45.47055155 28.82732851 41.61197811 29.25716195 36.70385742 29.22705078 C35.77250977 29.22382812 34.84116211 29.22060547 33.8815918 29.21728516 C32.92188477 29.20890625 31.96217773 29.20052734 30.97338867 29.19189453 C29.9943457 29.18738281 29.01530273 29.18287109 28.0065918 29.17822266 C25.59962757 29.16648137 23.1927901 29.15005872 20.78588867 29.12939453 C20.78588867 30.11939453 20.78588867 31.10939453 20.78588867 32.12939453 C22.56092773 32.09458984 22.56092773 32.09458984 24.37182617 32.05908203 C32.7190998 31.94611407 40.67352731 31.84651897 48.78588867 34.12939453 C50.90525888 39.86416097 51.55048054 45.17011572 49.78588867 51.12939453 C47.19832549 54.44117364 43.73043902 56.85594214 39.53588867 57.44580078 C33.26553728 58.00692598 27.08039477 58.25228077 20.78588867 58.12939453 C20.78588867 59.44939453 20.78588867 60.76939453 20.78588867 62.12939453 C31.01588867 62.12939453 41.24588867 62.12939453 51.78588867 62.12939453 C54.97701793 68.51165304 55.70321049 72.21340644 54.78588867 79.12939453 C52.46861734 84.03131466 49.5772925 86.64496292 44.78588867 89.12939453 C36.74563101 91.52492728 28.54153292 91.46319034 20.22338867 91.44189453 C18.96075195 91.45800781 17.69811523 91.47412109 16.3972168 91.49072266 C8.02379087 91.4950952 0.67835122 91.17566957 -6.08911133 85.87939453 C-13.89007338 75.78403188 -12.38243354 62.65361413 -12.33911133 50.50439453 C-12.33789276 49.83552216 -12.33667419 49.16664978 -12.3354187 48.47750854 C-12.31540569 39.0427046 -12.14565585 29.62034081 -11.77661133 20.19189453 C-11.73745605 19.18755371 -11.69830078 18.18321289 -11.65795898 17.1484375 C-11.41770917 11.75892541 -10.96473752 6.47208682 -10.21411133 1.12939453 C-6.74875704 0.34532842 -3.55019063 0.00317881 0 0 Z " fill="#FDFCFC" transform="translate(934.214111328125,51.87060546875)"/>
<path d="M0 0 C4.07745879 2.82925712 6.4884141 5.40274229 8.0625 10.125 C8.56451239 16.24955118 8.16178344 19.25017646 4.0625 24.125 C1.34914979 26.57363311 -0.46793669 27.9684789 -3.9375 29.125 C-5.734375 28.19921875 -5.734375 28.19921875 -7.6875 26.8125 C-13.93790215 22.71387564 -20.49459706 21.14415233 -27.9375 22.125 C-28.9275 22.785 -29.9175 23.445 -30.9375 24.125 C-30.4425 25.61 -30.4425 25.61 -29.9375 27.125 C-27.31109182 27.89267282 -24.80138373 28.48048012 -22.125 29 C-9.67997552 31.70476035 1.8554826 35.26023532 9.50390625 46.18359375 C13.13654899 53.08181778 13.29601533 61.16010081 11.4375 68.640625 C8.76659999 75.46095896 3.96777116 81.93732495 -2.46875 85.54296875 C-16.1774444 91.26180662 -35.34175086 91.60677514 -49.265625 86.39453125 C-61.65854138 80.50608414 -61.65854138 80.50608414 -63.9375 74.125 C-64.5044941 69.49454821 -64.36342039 65.20495702 -61.9375 61.125 C-59.51863277 58.73991583 -56.99245034 56.65247517 -53.9375 55.125 C-48.64696263 55.37693035 -44.37720394 56.21442534 -39.4375 58.125 C-33.54787488 60.38516426 -28.05379316 62.07896729 -21.875 60.1875 C-21.235625 59.836875 -20.59625 59.48625 -19.9375 59.125 C-20.2675 57.475 -20.5975 55.825 -20.9375 54.125 C-21.52015625 54.01542969 -22.1028125 53.90585938 -22.703125 53.79296875 C-25.45318785 53.26111697 -28.19467722 52.69297641 -30.9375 52.125 C-31.91074219 51.94195312 -32.88398437 51.75890625 -33.88671875 51.5703125 C-43.63655203 49.50564192 -52.0519003 45.39803385 -57.9375 37.125 C-61.33953633 30.61568861 -61.54501041 24.20403651 -59.9375 17.125 C-57.45076757 9.81422012 -53.49398914 4.27523555 -46.9375 0.125 C-43.34549087 -1.50682686 -39.7256525 -2.78090627 -35.9375 -3.875 C-35.33550781 -4.06835938 -34.73351562 -4.26171875 -34.11328125 -4.4609375 C-22.81239864 -6.6115543 -10.20911699 -5.28724796 0 0 Z " fill="#FCFCFC" transform="translate(865.9375,54.875)"/>
<path d="M0 0 C1.50390625 1.1484375 1.50390625 1.1484375 2.50390625 3.1484375 C3.05085917 9.49309139 2.13936151 13.85943647 -1.49609375 19.1484375 C-6.91884783 24.30666699 -11.32817462 24.28756461 -18.49609375 24.26171875 C-21.49609375 24.1484375 -21.49609375 24.1484375 -25.24609375 23.4609375 C-29.58773739 23.04347177 -32.72544953 23.99261265 -36.49609375 26.1484375 C-41.3002192 31.19892836 -41.79074682 34.60788797 -41.7109375 41.3828125 C-41.43253635 44.96659452 -40.60677341 47.23715521 -38.49609375 50.1484375 C-34.43970277 53.6083004 -29.71358328 54.42937924 -24.49609375 54.1484375 C-19.61036456 52.89688769 -15.12180285 51.17773261 -10.85546875 48.4765625 C-8.49609375 47.1484375 -8.49609375 47.1484375 -5.49609375 47.6484375 C-0.95699515 49.9179868 1.71571984 52.96615788 4.50390625 57.1484375 C5.91133744 63.42774588 5.72647166 68.4568912 2.50390625 74.1484375 C-3.91998698 81.62777769 -10.82409117 84.82159238 -20.49609375 86.1484375 C-35.7970559 86.83666069 -51.08066593 85.6857472 -63.37109375 75.4609375 C-73.49533523 65.59300593 -77.54619646 52.3735533 -77.93359375 38.4609375 C-77.45714757 26.05796746 -74.36808021 16.81393564 -66.18359375 7.5234375 C-47.23710008 -9.21997551 -22.44610103 -13.37395773 0 0 Z " fill="#FCFCFC" transform="translate(474.49609375,57.8515625)"/>
<path d="M0 0 C1.80782707 0.00424484 1.80782707 0.00424484 3.6521759 0.00857544 C7.46223317 0.0196773 11.27204628 0.04476316 15.08203125 0.0703125 C17.68163721 0.08035522 20.28124688 0.0894788 22.88085938 0.09765625 C29.21883184 0.11958383 35.55666409 0.15296049 41.89453125 0.1953125 C45.66849433 7.33725456 46.38855484 14.6044695 44.2734375 22.51953125 C42.29267687 26.5778897 39.27939085 28.5496643 35.3828125 30.46875 C31.62025273 31.56739383 27.78938567 31.8488939 23.89453125 32.1953125 C23.90613281 33.42121094 23.91773438 34.64710937 23.9296875 35.91015625 C23.99479731 46.09934138 23.85750637 56.26321351 23.45703125 66.4453125 C23.41779541 67.47906006 23.37855957 68.51280762 23.33813477 69.57788086 C22.63759492 86.14477421 22.63759492 86.14477421 20.08203125 89.7578125 C14.16616392 92.42575267 7.72650915 92.05024923 1.58203125 90.1953125 C-6.01899697 84.53873336 -9.73538789 78.48381342 -11.10546875 69.1953125 C-11.3297244 66.46271588 -11.52155263 63.74432081 -11.66796875 61.0078125 C-11.71042725 60.23840332 -11.75288574 59.46899414 -11.79663086 58.67626953 C-12.23870712 49.85075508 -12.19360929 41.02895331 -12.10546875 32.1953125 C-13.42611328 32.21271484 -13.42611328 32.21271484 -14.7734375 32.23046875 C-16.51560547 32.24400391 -16.51560547 32.24400391 -18.29296875 32.2578125 C-19.44152344 32.26941406 -20.59007812 32.28101563 -21.7734375 32.29296875 C-24.74178845 32.20597136 -27.27383224 32.08019891 -30.10546875 31.1953125 C-33.62318315 25.37288867 -34.06040426 19.62780482 -32.63671875 13.01953125 C-31.33825682 8.91546409 -29.57209819 5.76103328 -26.00544739 3.14816284 C-18.25942301 -0.73651345 -8.42212468 -0.07584333 0 0 Z " fill="#FCFCFC" transform="translate(565.10546875,51.8046875)"/>
<path d="M0 0 C1.80782707 0.00424484 1.80782707 0.00424484 3.6521759 0.00857544 C7.46223317 0.0196773 11.27204628 0.04476316 15.08203125 0.0703125 C17.68163721 0.08035522 20.28124688 0.0894788 22.88085938 0.09765625 C29.21883184 0.11958383 35.55666409 0.15296049 41.89453125 0.1953125 C45.13177451 7.48634301 46.61108581 14.32369352 43.76953125 22.0703125 C41.60791071 25.6730134 39.67810266 28.34083606 35.89453125 30.1953125 C33.83481154 30.6464312 31.75726526 31.02042121 29.671875 31.33203125 C28.590271 31.49791748 27.50866699 31.66380371 26.39428711 31.8347168 C25.56936768 31.95371338 24.74444824 32.07270996 23.89453125 32.1953125 C23.85694702 34.00950684 23.85694702 34.00950684 23.81860352 35.86035156 C23.72355446 40.4004759 23.62358272 44.94048142 23.5222168 49.48046875 C23.47923275 51.43551835 23.43753675 53.39059676 23.3972168 55.34570312 C23.26708997 61.63034696 23.10209705 67.91274913 22.89453125 74.1953125 C22.85569824 75.48115234 22.81686523 76.76699219 22.77685547 78.09179688 C22.69395264 79.68217773 22.69395264 79.68217773 22.609375 81.3046875 C22.56804443 82.17577148 22.52671387 83.04685547 22.48413086 83.94433594 C21.69792434 86.94591941 20.23491241 88.21885635 17.89453125 90.1953125 C13.42147775 92.43183925 7.34491726 91.81312703 2.6015625 90.6171875 C-3.25298687 88.1258899 -6.24152481 83.72470922 -9.10546875 78.1953125 C-13.06169665 68.02215505 -12.24029066 56.23927141 -12.16796875 45.5078125 C-12.16345703 44.22197266 -12.15894531 42.93613281 -12.15429688 41.61132812 C-12.14262876 38.47260597 -12.1262589 35.33398522 -12.10546875 32.1953125 C-12.97429687 32.21851563 -13.843125 32.24171875 -14.73828125 32.265625 C-15.89070313 32.28367188 -17.043125 32.30171875 -18.23046875 32.3203125 C-19.36742187 32.34351563 -20.504375 32.36671875 -21.67578125 32.390625 C-25.20175846 32.18982903 -27.86384812 31.57912738 -31.10546875 30.1953125 C-34.16435075 25.08538824 -33.72335487 18.94699318 -33.10546875 13.1953125 C-31.51315177 8.35811173 -28.50130864 4.72058223 -24.10546875 2.1953125 C-16.13686964 0.06989521 -8.19402872 -0.07378927 0 0 Z " fill="#FCFCFC" transform="translate(357.10546875,51.8046875)"/>
<path d="M0 0 C7.64560243 7.49420437 7.51737747 19.94395093 7.62890625 29.98828125 C7.63698407 32.80452617 7.62660472 35.61964403 7.60180664 38.43579102 C7.5783637 41.26803619 7.5812495 44.09932365 7.58789062 46.93164062 C7.57622092 56.4544324 7.27648823 65.95246808 6.55859375 75.44921875 C6.50649246 76.33895889 6.45439117 77.22869904 6.40071106 78.145401 C5.8635388 84.21979712 5.8635388 84.21979712 2.87988281 86.78759766 C-3.23721006 89.00295871 -10.24214374 88.82189409 -16.171875 86.234375 C-25.07719932 77.54625371 -27.70861031 68.93412109 -27.87963867 56.69482422 C-27.89293437 54.30959536 -27.90016242 51.92432742 -27.90234375 49.5390625 C-27.90567215 48.2734549 -27.90900055 47.00784729 -27.91242981 45.70388794 C-27.91747987 43.03611717 -27.92027274 40.36844842 -27.91967773 37.70068359 C-27.9195758 34.29008032 -27.93327431 30.87968375 -27.95044994 27.46912956 C-27.96425921 24.20078166 -27.96365862 20.93243562 -27.96484375 17.6640625 C-27.97202927 16.44314911 -27.97921478 15.22223572 -27.98661804 13.96432495 C-27.98354141 12.82609283 -27.98046478 11.68786072 -27.97729492 10.51513672 C-27.97871994 9.51698944 -27.98014496 8.51884216 -27.98161316 7.490448 C-27.71514469 4.52000622 -27.07436207 2.39255398 -25.734375 -0.265625 C-17.86435983 -6.06458354 -7.84887879 -5.7275602 0 0 Z " fill="#FDFCFC" transform="translate(910.734375,55.265625)"/>
</svg>
