<?xml version="1.0" encoding="UTF-8"?>
<svg version="1.1" xmlns="http://www.w3.org/2000/svg" width="1000" height="200">
<path d="M0 0 C0.92174011 -0.00350464 1.84348022 -0.00700928 2.79315186 -0.01062012 C5.80749281 -0.01934533 8.82159461 -0.01362105 11.8359375 -0.00683594 C13.95003301 -0.00818523 16.06412821 -0.01012797 18.17822266 -0.01263428 C22.59605888 -0.01557307 27.01381389 -0.01132803 31.43164062 -0.00195312 C37.07356227 0.00944059 42.71529358 0.00287444 48.35720825 -0.00909805 C52.71884577 -0.0163503 57.08043872 -0.01401329 61.44207764 -0.00884247 C63.52154564 -0.00751527 65.60101779 -0.00912082 67.68048096 -0.01380157 C70.59438691 -0.01892235 73.5079913 -0.01107916 76.421875 0 C77.26788269 -0.00404846 78.11389038 -0.00809692 78.98553467 -0.01226807 C92.04881904 0.07901746 104.04222553 3.61461699 113.7734375 12.63378906 C124.92700137 24.64531938 128.36493553 36.46534696 128.35620117 52.72900391 C128.35955978 53.64069839 128.3629184 54.55239288 128.36637878 55.49171448 C128.37582276 58.4843993 128.37782849 61.4770278 128.37890625 64.46972656 C128.38212304 66.56426008 128.38548743 68.65879337 128.38899231 70.75332642 C128.39496694 75.13601197 128.39683389 79.51867785 128.39624023 83.90136719 C128.39613863 89.49849274 128.40979675 95.0954914 128.42701244 100.6925869 C128.43816649 105.01647514 128.44015841 109.34033301 128.43963051 113.66423416 C128.44080526 115.72695987 128.44519849 117.78968649 128.45296288 119.85239792 C128.4628331 122.7449492 128.45985729 125.63722888 128.45385742 128.52978516 C128.45947693 129.3695842 128.46509644 130.20938324 128.47088623 131.07463074 C128.40212415 144.21446258 124.58927906 157.02730977 115.3984375 166.75878906 C105.19255217 175.94211941 94.12189098 179.72815818 80.53564453 179.6628418 C79.5195813 179.66970505 78.50351807 179.6765683 77.45666504 179.68363953 C74.1272143 179.70180903 70.79823926 179.69808376 67.46875 179.69238281 C65.1352422 179.69694954 62.80173573 179.70225657 60.4682312 179.70826721 C55.58797731 179.71717919 50.70788722 179.71479716 45.82763672 179.70483398 C39.59835843 179.69335098 33.36964759 179.71355603 27.1404438 179.74275112 C22.32405045 179.76116829 17.50779167 179.76080957 12.69137192 179.7551136 C10.39584431 179.75496104 8.10030721 179.76095091 5.80481339 179.77340508 C-11.83842791 179.85564855 -25.1743333 178.94988174 -38.75390625 166.45019531 C-45.50665469 159.34281675 -50.88158711 149.70605255 -50.93623352 139.75169373 C-50.94338882 138.85336319 -50.95054413 137.95503265 -50.95791626 137.02947998 C-50.96060516 136.05126282 -50.96329407 135.07304565 -50.96606445 134.06518555 C-50.97263565 133.02888504 -50.97920685 131.99258453 -50.98597717 130.92488098 C-51.00569593 127.49321416 -51.01737133 124.06159114 -51.02734375 120.62988281 C-51.03141928 119.45576403 -51.0354948 118.28164524 -51.03969383 117.0719471 C-51.06055118 110.85420025 -51.07485287 104.63647543 -51.08422852 98.41870117 C-51.09527597 92.01209007 -51.1296581 85.60582789 -51.16940022 79.19933987 C-51.19561246 74.26033404 -51.2039246 69.32141065 -51.20750999 64.38234138 C-51.2123661 62.02177646 -51.22395203 59.66121498 -51.24254799 57.30071831 C-51.26703067 53.9862537 -51.26595707 50.67268262 -51.2590332 47.3581543 C-51.27184326 46.39410675 -51.28465332 45.4300592 -51.29785156 44.4367981 C-51.21653302 33.68535415 -47.36211363 24.67101508 -40.7890625 16.25878906 C-40.31082031 15.64261719 -39.83257812 15.02644531 -39.33984375 14.39160156 C-29.43178874 3.16080874 -14.31260935 -0.06849117 0 0 Z " fill="#000000" transform="translate(60.7890625,9.7412109375)"/>
<path d="M0 0 C4.40228895 2.50797067 7.01233571 5.47450712 8.625 10.3125 C8.74544219 12.6977633 8.80487739 15.08623746 8.83374023 17.47436523 C8.84352402 18.19989594 8.8533078 18.92542664 8.86338806 19.67294312 C8.89328807 22.07230806 8.91470796 24.47161773 8.93359375 26.87109375 C8.94016558 27.6907921 8.9467374 28.51049046 8.95350838 29.35502815 C8.98607251 33.69085083 9.0105349 38.02664917 9.0300293 42.36254883 C9.04786954 45.95275438 9.0827358 49.54217846 9.13256836 53.13208008 C9.19266889 57.46688201 9.22348971 61.80095734 9.23320198 66.13615608 C9.24177195 67.78805056 9.26062823 69.43992481 9.2899456 71.09158134 C9.328766 73.40233427 9.32990968 75.71023995 9.32202148 78.02124023 C9.33748268 79.99289406 9.33748268 79.99289406 9.35325623 82.00437927 C8.625 85.3125 8.625 85.3125 5.76234436 87.71205139 C-1.06780565 91.19630522 -8.8690393 92.2584797 -16.2890625 90.12890625 C-30.25718002 84.66198385 -36.39310684 71.67480579 -43.375 59.3125 C-43.33310547 60.07393311 -43.29121094 60.83536621 -43.24804688 61.61987305 C-43.08146361 65.0793751 -42.97763104 68.5380352 -42.875 72 C-42.77445313 73.79727539 -42.77445313 73.79727539 -42.671875 75.63085938 C-42.4789184 84.28978682 -42.4789184 84.28978682 -45.05078125 87.22509766 C-50.95397753 91.02959266 -57.45844827 92.34906506 -64.39453125 90.88671875 C-69.91052345 89.16758543 -73.22045993 86.11525996 -76.375 81.3125 C-77.56074288 77.75527137 -77.49490193 74.93473456 -77.48852539 71.17895508 C-77.48867142 70.45675278 -77.48881744 69.73455048 -77.4889679 68.99046326 C-77.48827145 66.60428866 -77.4804916 64.21819221 -77.47265625 61.83203125 C-77.47079112 60.1772211 -77.46936766 58.52241039 -77.46836853 56.86759949 C-77.46455085 52.51268997 -77.45472695 48.15781382 -77.44366455 43.80291748 C-77.43343433 39.35885062 -77.42886745 34.91477837 -77.42382812 30.47070312 C-77.41310402 21.75128677 -77.39603657 13.03189754 -77.375 4.3125 C-75.78985508 3.48603631 -74.20068759 2.66728483 -72.60986328 1.85180664 C-71.72533478 1.39504044 -70.84080627 0.93827423 -69.92947388 0.46766663 C-64.04314082 -2.19421047 -57.0615639 -1.68228708 -50.9140625 -0.0234375 C-41.29771747 4.21364939 -36.75010311 14.52825535 -32 23.25 C-31.35361121 24.42293781 -30.70648104 25.59546737 -30.05859375 26.76757812 C-28.49008165 29.61196947 -26.92915213 32.46024501 -25.375 35.3125 C-25.38136475 34.39960205 -25.38772949 33.4867041 -25.39428711 32.54614258 C-25.40142729 29.14373893 -25.37731191 25.74448921 -25.33227539 22.3425293 C-25.31917215 20.87318654 -25.31836832 19.40367873 -25.33032227 17.93432617 C-25.41707384 5.73540263 -25.41707384 5.73540263 -22.85986328 2.24365234 C-16.26040066 -2.58136913 -7.38515328 -3.43624393 0 0 Z " fill="#000000" transform="translate(789.375,52.6875)"/>
<path d="M0 0 C1.14299561 0.00241699 1.14299561 0.00241699 2.30908203 0.00488281 C9.1040422 0.15351801 13.77159759 1.30052009 18.6875 6.375 C21.16965658 11.04729475 20.93017376 15.95175441 20.99609375 21.12890625 C21.02906065 22.88867632 21.06227177 24.64844182 21.09570312 26.40820312 C21.14284673 29.16378336 21.18723938 31.91934905 21.22680664 34.67504883 C20.90909897 49.26314584 20.90909897 49.26314584 23.75 63.375 C26.57398066 65.67044841 26.57398066 65.67044841 29.8125 65.3125 C32.84786508 64.68343415 32.84786508 64.68343415 34.0625 62.375 C35.78155678 54.87366133 35.85314823 47.41829729 35.70703125 39.7578125 C35.68467276 37.75000954 35.66321418 35.7421964 35.64257812 33.734375 C35.60530301 30.60030346 35.56187725 27.46675613 35.50317383 24.33300781 C35.44889987 21.28703014 35.41967074 18.24165099 35.39453125 15.1953125 C35.37074905 14.25470978 35.34696686 13.31410706 35.32246399 12.34500122 C35.29633903 5.8936648 35.29633903 5.8936648 37.53393555 3.33544922 C45.68082043 -0.195436 53.32636357 -0.64916128 61.671875 2.40234375 C66.15816836 4.50213143 68.26629345 7.44213737 70.5 11.75 C76.23042565 28.36823438 75.45063023 55.81037067 68.125 71.875 C62.24403132 82.34426067 54.48911076 87.39841894 43.5 91.625 C28.75048655 94.57490269 10.76455114 94.66021493 -2.234375 86.0625 C-11.12969467 79.06788966 -14.11740641 69.60797698 -15.81640625 58.7578125 C-16.43676355 53.43151245 -16.44165501 48.10663578 -16.4375 42.75 C-16.43669434 41.66493164 -16.43588867 40.57986328 -16.43505859 39.46191406 C-16.37965324 31.98545002 -16.03352619 24.57233251 -15.375 17.125 C-15.29660889 16.21540527 -15.21821777 15.30581055 -15.13745117 14.36865234 C-14.29606877 5.87093207 -14.29606877 5.87093207 -12.25 2.375 C-8.74999971 -0.42839829 -4.28984151 -0.00927533 0 0 Z " fill="#000000" transform="translate(630.25,51.625)"/>
<path d="M0 0 C1.03490067 -0.00315216 2.06980133 -0.00630432 3.13606262 -0.009552 C4.24447006 -0.00752777 5.3528775 -0.00550354 6.49487305 -0.00341797 C7.6452153 -0.00437469 8.79555756 -0.00533142 9.98075867 -0.00631714 C12.41246597 -0.00699702 14.8441751 -0.00515613 17.27587891 -0.00097656 C20.98238244 0.00435968 24.68876398 -0.00092054 28.39526367 -0.00732422 C30.7618004 -0.00666312 33.12833704 -0.00538129 35.49487305 -0.00341797 C36.59720779 -0.0054422 37.69954254 -0.00746643 38.83528137 -0.009552 C44.55057806 0.00769835 50.04177546 0.27095512 55.6940918 1.12939453 C58.71182278 6.97624831 58.44962546 12.74349875 56.5065918 18.87939453 C53.95433898 23.45584785 51.68913277 26.37571239 46.70581055 28.25830078 C41.77891627 29.56460578 36.81629754 29.34431411 31.7565918 29.25439453 C30.78657227 29.24537109 29.81655273 29.23634766 28.81713867 29.22705078 C26.44252773 29.2036556 24.06844404 29.17087629 21.6940918 29.12939453 C21.6940918 30.11939453 21.6940918 31.10939453 21.6940918 32.12939453 C23.50393555 32.11199219 23.50393555 32.11199219 25.3503418 32.09423828 C26.96492357 32.08485118 28.57950703 32.07575197 30.1940918 32.06689453 C30.98557617 32.05851562 31.77706055 32.05013672 32.5925293 32.04150391 C46.4729955 31.98461675 46.4729955 31.98461675 49.6940918 35.00439453 C51.61800632 41.01662743 51.66074431 46.7758058 49.2565918 52.62939453 C43.47631071 58.26869316 36.83240413 58.35253073 29.1315918 58.31689453 C26.65061628 58.27897089 24.17418679 58.21155719 21.6940918 58.12939453 C21.6940918 59.44939453 21.6940918 60.76939453 21.6940918 62.12939453 C31.9240918 62.12939453 42.1540918 62.12939453 52.6940918 62.12939453 C57.21716464 74.19092211 57.21716464 74.19092211 54.0690918 81.31689453 C51.58102234 85.78332477 48.69378933 88.25063254 43.68896484 89.71679688 C36.16483209 91.35077317 28.80822367 91.42656278 21.1315918 91.37939453 C19.23763672 91.39099609 19.23763672 91.39099609 17.30541992 91.40283203 C1.37435651 91.36955566 1.37435651 91.36955566 -5.1809082 87.37939453 C-10.41172613 81.84088143 -11.42941951 75.72422188 -11.43530273 68.36791992 C-11.4384549 67.23226089 -11.44160706 66.09660187 -11.44485474 64.92652893 C-11.44283051 63.70570114 -11.44080627 62.48487335 -11.4387207 61.22705078 C-11.43967743 59.9577623 -11.44063416 58.68847382 -11.44161987 57.38072205 C-11.44230032 54.69168699 -11.44095976 52.00274277 -11.4362793 49.3137207 C-11.43063415 45.90848865 -11.43383035 42.50333635 -11.43985176 39.09810734 C-11.44439534 35.80775257 -11.4411841 32.51740661 -11.4387207 29.22705078 C-11.44074493 28.02444107 -11.44276917 26.82183136 -11.44485474 25.58277893 C-11.42268095 17.39445306 -10.98641729 9.28885855 -10.3059082 1.12939453 C-6.80942005 0.33619092 -3.58249109 0.00314486 0 0 Z " fill="#000000" transform="translate(265.305908203125,51.87060546875)"/>
<path d="M0 0 C1.51747833 -0.00472824 1.51747833 -0.00472824 3.06561279 -0.009552 C4.1490094 -0.00752777 5.23240601 -0.00550354 6.34863281 -0.00341797 C7.47440735 -0.00437469 8.60018188 -0.00533142 9.7600708 -0.00631714 C12.1405035 -0.00699702 14.52093806 -0.00515614 16.90136719 -0.00097656 C20.52445708 0.00435436 24.14742187 -0.00091778 27.77050781 -0.00732422 C30.08821642 -0.00666301 32.40592494 -0.00538097 34.72363281 -0.00341797 C35.7989325 -0.0054422 36.87423218 -0.00746643 37.9821167 -0.009552 C44.004337 0.00898137 49.82958645 0.34530371 55.80175781 1.12939453 C57.96068177 7.60616639 57.96300999 15.5389089 55.17675781 21.75439453 C50.72936012 26.20179222 46.64373866 28.95306991 40.328125 29.24291992 C39.42739258 29.23768311 38.52666016 29.23244629 37.59863281 29.22705078 C36.61894531 29.22382812 35.63925781 29.22060547 34.62988281 29.21728516 C33.61410156 29.20890625 32.59832031 29.20052734 31.55175781 29.19189453 C30.00488281 29.18512695 30.00488281 29.18512695 28.42675781 29.17822266 C25.88503208 29.16645541 23.34342462 29.15001464 20.80175781 29.12939453 C20.80175781 30.11939453 20.80175781 31.10939453 20.80175781 32.12939453 C22.70248047 32.09458984 22.70248047 32.09458984 24.64160156 32.05908203 C26.34081436 32.0403062 28.04003361 32.02210796 29.73925781 32.00439453 C30.98545898 31.97925781 30.98545898 31.97925781 32.25683594 31.95361328 C37.83816255 31.91017883 43.53961693 32.07686886 48.80175781 34.12939453 C51.39306246 38.48278634 51.19355439 43.1927576 50.80175781 48.12939453 C49.01935174 52.25707176 46.52523995 54.64707311 42.80175781 57.12939453 C38.25106917 58.43319627 33.67899868 58.24299816 28.98925781 58.19189453 C28.20099609 58.18738281 27.41273438 58.18287109 26.60058594 58.17822266 C24.66761021 58.16650765 22.73467389 58.14857451 20.80175781 58.12939453 C20.80175781 59.44939453 20.80175781 60.76939453 20.80175781 62.12939453 C22.18681519 62.09011841 22.18681519 62.09011841 23.59985352 62.05004883 C27.02725798 61.96481148 30.45353636 61.90214278 33.8815918 61.85473633 C35.36484549 61.82959644 36.84797534 61.79547861 38.33081055 61.75219727 C40.46336376 61.69151195 42.59427986 61.66318338 44.72753906 61.64111328 C46.65206909 61.60183716 46.65206909 61.60183716 48.61547852 61.56176758 C51.80175781 62.12939453 51.80175781 62.12939453 53.71899414 64.47631836 C54.96827245 67.53740233 55.20201931 69.82855828 55.17675781 73.12939453 C55.18835938 74.64533203 55.18835938 74.64533203 55.20019531 76.19189453 C54.58485286 80.72853692 52.72678412 83.29924271 49.36425781 86.31689453 C41.37435156 91.96829164 32.49868859 91.34188828 23.00561523 91.36962891 C21.00459853 91.37932023 19.00372396 91.4105249 17.00292969 91.44189453 C0.03082118 91.50974904 0.03082118 91.50974904 -5.83813477 86.81860352 C-14.15941319 77.63099203 -12.36598794 62.57525179 -12.32324219 51.06689453 C-12.3205835 49.76864746 -12.3179248 48.47040039 -12.31518555 47.1328125 C-12.28118773 38.33522435 -12.08958216 29.54610248 -11.76074219 20.75439453 C-11.72158691 19.69857178 -11.68243164 18.64274902 -11.64208984 17.55493164 C-11.40815902 12.02708346 -10.97618169 6.6076576 -10.19824219 1.12939453 C-6.73827382 0.346904 -3.54460398 0.00318462 0 0 Z " fill="#000000" transform="translate(934.1982421875,51.87060546875)"/>
<path d="M0 0 C4.51793326 3.82286661 6.21703717 7.2033345 6.875 13.125 C6.63179577 18.42482558 4.54795442 21.87716967 1.03515625 25.72265625 C-0.93430083 27.29725885 -2.03842044 27.90057089 -4.5625 28.1875 C-7.87293588 27.00737083 -10.75310717 25.49820111 -13.79296875 23.73828125 C-18.60860859 21.04179462 -23.1241067 20.70829731 -28.5625 21.1875 C-30.96807853 22.05015968 -30.96807853 22.05015968 -32.5625 23.1875 C-32.0675 24.6725 -32.0675 24.6725 -31.5625 26.1875 C-28.72781995 26.97808415 -26.00862856 27.58947717 -23.125 28.125 C-10.29884227 30.78497021 -0.04127989 34.08715196 7.953125 45.31640625 C11.53690934 52.16850096 11.69289164 60.33678554 9.77734375 67.73828125 C6.67114502 75.52394821 1.33005967 81.82044996 -6.27734375 85.3984375 C-20.84501974 90.42864357 -39.41600777 90.62153424 -53.5625 84.1875 C-54.44292969 83.80207031 -55.32335937 83.41664063 -56.23046875 83.01953125 C-59.93484618 81.19973375 -62.16379516 79.73118842 -64.625 76.375 C-66.30449823 70.66470603 -66.30794674 66.28041201 -63.9375 60.875 C-61.81925197 57.09188334 -59.77824207 55.51008575 -55.5625 54.1875 C-49.31276252 53.1671347 -44.46883309 55.70197788 -38.7890625 58 C-33.51087 59.94257932 -28.93103226 60.91256089 -23.5 59.25 C-22.860625 58.899375 -22.22125 58.54875 -21.5625 58.1875 C-21.8925 56.5375 -22.2225 54.8875 -22.5625 53.1875 C-24.41101563 52.85878906 -24.41101563 52.85878906 -26.296875 52.5234375 C-51.22646107 47.85024347 -51.22646107 47.85024347 -58.4453125 38.08984375 C-62.64396805 30.94038483 -63.39782091 24.2697517 -61.5625 16.1875 C-58.73536069 7.87595311 -53.8937675 1.85313375 -46 -2.09375 C-32.28587108 -7.80797038 -12.68386512 -8.7546243 0 0 Z " fill="#000000" transform="translate(867.5625,55.8125)"/>
<path d="M0 0 C1.92409938 3.84819877 1.60873619 8.16717473 0.28125 12.1640625 C-1.73686455 16.50951882 -3.88909606 19.36480517 -8 22 C-13.65893323 23.88631108 -20.38911138 23.56313284 -26.1875 22.3125 C-30.52503897 21.83055123 -34.12468853 23.06971178 -38 25 C-41.91265241 28.91265241 -43.15160294 32.29643646 -43.3125 37.75 C-43.21888138 43.09406268 -42.45854917 45.86661197 -39 50 C-34.4139621 52.60386042 -29.49174623 53.62647777 -24.2421875 52.73046875 C-20.189186 51.41006582 -16.52680073 49.2812995 -12.83203125 47.1796875 C-9.60208575 45.83424813 -8.2666385 45.87969274 -5 47 C0.16030075 50.4402005 2.46937277 53.72588331 3.875 59.75 C4.36773704 65.7076388 2.97347673 70.51112868 -0.75 75.20703125 C-8.93760544 83.31938296 -18.82557631 85.34133053 -30 85.4375 C-44.43191097 85.22277542 -57.54299691 81.99684477 -67.875 71.375 C-77.42005984 60.00288935 -80.09603818 45.48825476 -79 31 C-77.32059844 20.32005567 -73.04518967 9.71942303 -64.43017578 2.72558594 C-62.73449361 1.52880937 -61.01296814 0.40761886 -59.25 -0.6875 C-58.32574219 -1.27047852 -58.32574219 -1.27047852 -57.3828125 -1.86523438 C-52.77928132 -4.69187957 -48.29839996 -6.81147003 -43 -8 C-42.071875 -8.226875 -41.14375 -8.45375 -40.1875 -8.6875 C-26.69644159 -10.01015278 -11.17692048 -8.53510291 0 0 Z " fill="#000000" transform="translate(476,59)"/>
<path d="M0 0 C1.20804794 0.00141495 2.41609589 0.0028299 3.66075134 0.00428772 C7.49130812 0.0098523 11.32180486 0.02239822 15.15234375 0.03515625 C17.76106686 0.04017583 20.36979089 0.04473793 22.97851562 0.04882812 C29.34897856 0.05981012 35.71940686 0.07651271 42.08984375 0.09765625 C45.86380683 7.23959831 46.58386734 14.50681325 44.46875 22.421875 C42.48798937 26.48023345 39.47470335 28.45200805 35.578125 30.37109375 C31.81556523 31.46973758 27.98469817 31.75123765 24.08984375 32.09765625 C24.09508057 32.67394775 24.10031738 33.25023926 24.10571289 33.84399414 C24.19310385 45.06432929 24.13788265 56.26103799 23.65234375 67.47265625 C23.61310791 68.40343994 23.57387207 69.33422363 23.53344727 70.29321289 C23.41092184 72.89681943 23.25211416 75.49627456 23.08984375 78.09765625 C23.0626123 78.92942383 23.03538086 79.76119141 23.00732422 80.61816406 C22.77311304 84.61852359 22.59209986 86.50911745 19.9296875 89.62890625 C14.8241979 92.26943457 9.68269645 91.78263947 4.08984375 91.09765625 C0.65234375 89.53515625 0.65234375 89.53515625 -1.91015625 87.09765625 C-2.4309375 86.61167969 -2.95171875 86.12570313 -3.48828125 85.625 C-15.8831326 72.89921815 -12.074951 48.44895769 -11.91015625 32.09765625 C-12.77898438 32.12085938 -13.6478125 32.1440625 -14.54296875 32.16796875 C-15.69539062 32.18601563 -16.8478125 32.2040625 -18.03515625 32.22265625 C-19.17210937 32.24585938 -20.3090625 32.2690625 -21.48046875 32.29296875 C-25.01256063 32.09182457 -27.6698242 31.50338853 -30.91015625 30.09765625 C-33.71721334 24.86632258 -33.66518428 18.63803979 -32.4453125 12.91796875 C-30.78295596 7.70466125 -28.35701852 5.21992125 -23.91015625 2.09765625 C-17.15652733 -1.27915821 -7.35777536 -0.03283363 0 0 Z " fill="#000000" transform="translate(564.91015625,51.90234375)"/>
<path d="M0 0 C1.20804794 0.00141495 2.41609589 0.0028299 3.66075134 0.00428772 C7.49130812 0.0098523 11.32180486 0.02239822 15.15234375 0.03515625 C17.76106686 0.04017583 20.36979089 0.04473793 22.97851562 0.04882812 C29.34897856 0.05981012 35.71940686 0.07651271 42.08984375 0.09765625 C45.32708701 7.38868676 46.80639831 14.22603727 43.96484375 21.97265625 C41.80322321 25.57535715 39.87341516 28.24317981 36.08984375 30.09765625 C34.03012404 30.54877495 31.95257776 30.92276496 29.8671875 31.234375 C28.7855835 31.40026123 27.70397949 31.56614746 26.58959961 31.73706055 C25.76468018 31.85605713 24.93976074 31.97505371 24.08984375 32.09765625 C24.05225952 33.91185059 24.05225952 33.91185059 24.01391602 35.76269531 C23.91886696 40.30281965 23.81889522 44.84282517 23.7175293 49.3828125 C23.67454525 51.3378621 23.63284925 53.29294051 23.5925293 55.24804688 C23.46240247 61.53269071 23.29740955 67.81509288 23.08984375 74.09765625 C23.05101074 75.38349609 23.01217773 76.66933594 22.97216797 77.99414062 C22.88926514 79.58452148 22.88926514 79.58452148 22.8046875 81.20703125 C22.76335693 82.07811523 22.72202637 82.94919922 22.67944336 83.84667969 C21.89323684 86.84826316 20.43022491 88.1212001 18.08984375 90.09765625 C13.86393071 92.21061277 8.67867135 91.59281205 4.08984375 91.09765625 C-2.45143204 88.81407873 -5.9410646 84.14446485 -8.91015625 78.09765625 C-13.34534339 68.34024453 -12.04366454 55.81318535 -11.97265625 45.34765625 C-11.96814453 44.06632812 -11.96363281 42.785 -11.95898438 41.46484375 C-11.94733345 38.34239694 -11.9309765 35.22005307 -11.91015625 32.09765625 C-12.77898437 32.12085938 -13.6478125 32.1440625 -14.54296875 32.16796875 C-15.69539063 32.18601563 -16.8478125 32.2040625 -18.03515625 32.22265625 C-19.17210937 32.24585938 -20.3090625 32.2690625 -21.48046875 32.29296875 C-24.99685492 32.09271897 -27.66514127 31.44221142 -30.91015625 30.09765625 C-34.49597687 25.53012682 -33.33913291 18.55859722 -32.91015625 13.09765625 C-31.20178174 7.78271332 -28.26628951 5.34158527 -23.91015625 2.09765625 C-17.15652733 -1.27915821 -7.35777536 -0.03283363 0 0 Z " fill="#000000" transform="translate(356.91015625,51.90234375)"/>
<path d="M0 0 C4.84397997 2.74041895 7.75813459 6.09370956 10 11.25 C11.67502764 18.22928184 11.89940507 25.07948717 11.8828125 32.21875 C11.88376923 33.14610962 11.88472595 34.07346924 11.88571167 35.02893066 C11.8863891 36.98543364 11.88456543 38.94193891 11.88037109 40.8984375 C11.87506569 43.8385954 11.88030566 46.7785971 11.88671875 49.71875 C11.90170662 80.56769023 11.90170662 80.56769023 8.75 88.375 C4.17817703 91.95384785 -2.79548041 90.91296136 -8.25 90.375 C-14.18345145 87.67797661 -18.86010645 82.41952872 -21.5625 76.5 C-23.35487814 68.35282663 -23.39791436 60.23157998 -23.3828125 51.9296875 C-23.38376923 50.76043732 -23.38472595 49.59118713 -23.38571167 48.38650513 C-23.38638904 45.92742865 -23.38456581 43.46835034 -23.38037109 41.00927734 C-23.37500692 37.2548419 -23.38033617 33.50052555 -23.38671875 29.74609375 C-23.38605808 27.34895807 -23.38477714 24.95182247 -23.3828125 22.5546875 C-23.38483673 21.43786591 -23.38686096 20.32104431 -23.38894653 19.17037964 C-23.35585301 8.13057006 -23.35585301 8.13057006 -22.25 3.375 C-15.65948296 -2.06934016 -7.88950522 -3.60791415 0 0 Z " fill="#000000" transform="translate(906.25,52.625)"/>
</svg>
